<?xml version="1.0"?>
<svg width="368.373" height="368.373" xmlns="http://www.w3.org/2000/svg" xmlns:svg="http://www.w3.org/2000/svg" version="1.1" xml:space="preserve">
 <g class="layer">
  <title>Layer 1</title>
  <g id="XMLID_91_">
   <path d="m293.37,225.94l-15,0l0,-15c0,-8.29 -6.71,-15 -15,-15c-8.28,0 -15,6.71 -15,15l0,15l-15,0c-8.28,0 -15,6.71 -15,15c0,8.28 6.72,15 15,15l15,0l0,15c0,8.28 6.72,15 15,15c8.29,0 15,-6.72 15,-15l0,-15l15,0c8.29,0 15,-6.72 15,-15c0,-8.29 -6.71,-15 -15,-15z" fill="#ffffff" id="XMLID_92_"/>
   <path d="m263.37,135.94c-34.48,0 -65.14,16.71 -84.29,42.46c-7.65,-1.61 -15.58,-2.46 -23.71,-2.46c-8.64,0 -17.06,0.96 -25.16,2.78c-38.12,8.54 -69.15,36.06 -82.61,72.09c-4.67,12.5 -7.23,26.02 -7.23,40.13c0,8.28 6.72,15 15,15l125.6,0c19.25,24.34 49.03,40 82.4,40c57.9,0 105,-47.11 105,-105s-47.1,-105 -105,-105zm0,180c-13.59,0 -26.34,-3.66 -37.34,-10c-22.48,-12.97 -37.66,-37.24 -37.66,-65c0,-20.01 7.89,-38.2 20.71,-51.67c13.67,-14.36 32.95,-23.33 54.29,-23.33c41.36,0 75,33.64 75,75s-33.64,75 -75,75z" fill="#ffffff" id="XMLID_93_"/>
   <path d="m32.62,83.19c0,23.66 18.37,43.11 41.6,44.85c-7.39,-13.3 -11.6,-28.59 -11.6,-44.85s4.21,-31.56 11.6,-44.86c-23.23,1.75 -41.6,21.19 -41.6,44.86z" fill="#ffffff" id="XMLID_104_"/>
   <path d="m93.49,159.82c-5.17,-1.07 -10.48,-1.63 -15.87,-1.63c-42.8,0 -77.62,34.82 -77.62,77.62c0,8.28 6.72,15 15,15l1.02,0c11.61,-40.23 40.2,-73.32 77.47,-90.99z" fill="#ffffff" id="XMLID_105_"/>
   <path d="m104.22,46.91c-7.29,10.25 -11.6,22.77 -11.6,36.28s4.31,26.02 11.6,36.27c11.38,16 30.06,26.48 51.15,26.48c34.6,0 62.75,-28.15 62.75,-62.75s-28.15,-62.75 -62.75,-62.75c-21.09,0 -39.77,10.47 -51.15,26.47z" fill="#ffffff" id="XMLID_106_"/>
  </g>
 </g>
</svg>