<?xml version="1.0"?>
<svg width="122.88" height="122.27" xmlns="http://www.w3.org/2000/svg" xmlns:svg="http://www.w3.org/2000/svg" enable-background="new 0 0 122.88 122.27" version="1.1" xml:space="preserve">
 <g class="layer">
  <title>Layer 1</title>
  <g id="svg_1">
   <path d="m33.84,50.25c4.13,7.45 8.89,14.6 15.07,21.12c6.2,6.56 13.91,12.53 23.89,17.63c0.74,0.36 1.44,0.36 2.07,0.11c0.95,-0.36 1.92,-1.15 2.87,-2.1c0.74,-0.74 1.66,-1.92 2.62,-3.21c3.84,-5.05 8.59,-11.32 15.3,-8.18c0.15,0.07 0.26,0.15 0.41,0.21l22.38,12.87c0.07,0.04 0.15,0.11 0.21,0.15c2.95,2.03 4.17,5.16 4.2,8.71c0,3.61 -1.33,7.67 -3.28,11.1c-2.58,4.53 -6.38,7.53 -10.76,9.51c-4.17,1.92 -8.81,2.95 -13.27,3.61c-7,1.03 -13.56,0.37 -20.27,-1.69c-6.56,-2.03 -13.17,-5.38 -20.39,-9.84l-0.53,-0.34c-3.31,-2.07 -6.89,-4.28 -10.4,-6.89c-12.84,-9.7 -25.93,-23.71 -34.46,-39.13c-7.15,-12.94 -11.05,-26.91 -8.92,-40.22c1.18,-7.3 4.31,-13.94 9.77,-18.32c4.76,-3.84 11.17,-5.94 19.47,-5.2c0.95,0.07 1.8,0.62 2.25,1.44l14.35,24.26c2.1,2.72 2.36,5.42 1.21,8.12c-0.95,2.21 -2.87,4.25 -5.49,6.15c-0.77,0.66 -1.69,1.33 -2.66,2.03c-3.21,2.33 -6.86,5.02 -5.61,8.18l-0.03,-0.08l0,0l0,0z" fill="#ffffff" id="svg_2"/>
  </g>
 </g>
</svg>