<?xml version="1.0"?>
<svg width="512" height="512" xmlns="http://www.w3.org/2000/svg" xmlns:svg="http://www.w3.org/2000/svg" enable-background="new 0 0 512 512" version="1.1" xml:space="preserve">
 <g class="layer">
  <title>Layer 1</title>
  <path d="m225,1c21.02,0 42.04,0 63.21,0.35c1.16,0.78 2.13,1.44 3.19,1.61c7.06,1.17 14.25,1.77 21.2,3.42c24.72,5.84 48.39,14.4 70.53,27.12c16.19,9.3 31.65,19.66 45.07,32.52c11.77,11.27 22.84,23.4 33.11,36.05c16.09,19.82 27.86,42.3 36.58,66.24c6.46,17.71 11.47,35.87 13.2,54.78c0.06,0.69 1.25,1.27 1.91,1.91c0,21.02 0,42.04 -0.35,63.21c-1.44,5.51 -2.62,10.86 -3.61,16.24c-5.03,27.38 -14.35,53.15 -27.94,77.49c-15.07,26.99 -34.55,50.17 -57.83,70.38c-14,12.15 -29.17,22.61 -45.48,31.21c-27.24,14.35 -56.03,24.23 -86.85,27.55c-0.71,0.08 -1.29,1.26 -1.94,1.92c-21.02,0 -42.04,0 -63.21,-0.35c-0.82,-0.77 -1.46,-1.45 -2.19,-1.57c-6.43,-1.08 -12.9,-1.87 -19.3,-3.1c-27.38,-5.26 -53.01,-15.37 -76.98,-29.39c-25,-14.63 -46.74,-33.3 -65.66,-55.32c-12.08,-14.06 -22.61,-29.16 -31.19,-45.48c-14.33,-27.24 -24.25,-56.02 -27.55,-86.84c-0.08,-0.71 -1.26,-1.3 -1.92,-1.95c0,-21.35 0,-42.71 0.34,-64.2c0.76,-0.81 1.44,-1.44 1.58,-2.17c1.74,-9.09 3.09,-18.27 5.13,-27.29c5.46,-24.07 14.77,-46.71 27.26,-67.91c14.77,-25.06 33.45,-46.96 55.6,-65.94c14.04,-12.04 29.14,-22.53 45.42,-31.1c27.2,-14.33 55.98,-24.1 86.73,-27.47c0.71,-0.08 1.3,-1.26 1.94,-1.92m187.73,158.6c-3.48,-0.9 -6.95,-2.53 -10.44,-2.56c-23.32,-0.23 -46.64,-0.23 -69.97,-0.04c-4.95,0.04 -7.61,-1.84 -9.27,-6.41c-4.33,-11.88 -9.06,-23.61 -13.4,-35.48c-1.11,-3.01 -2.67,-3.95 -5.82,-3.93c-31.32,0.11 -62.64,0.11 -93.96,0c-2.99,-0.01 -4.4,0.94 -5.43,3.75c-4.36,11.86 -9.12,23.58 -13.41,35.47c-1.73,4.82 -4.52,6.65 -9.66,6.61c-23.32,-0.21 -46.64,-0.12 -69.97,-0.08c-10.58,0.02 -16.86,6.07 -16.87,16.7c-0.08,64.14 -0.08,128.28 -0.01,192.42c0.01,10.78 6.41,16.86 17.31,16.87c96.79,0.01 193.58,0.01 290.37,0c10.88,-0.01 17.26,-6.09 17.28,-16.92c0.07,-64.14 0.03,-128.28 0.04,-192.42c0,-5.48 -1.74,-10.12 -6.79,-13.98z" fill="#303548" id="svg_1" opacity="1"/>
  <path d="m413.03,159.82c4.75,3.64 6.49,8.28 6.49,13.76c-0.01,64.14 0.03,128.28 -0.04,192.42c-0.02,10.83 -6.4,16.91 -17.28,16.92c-96.79,0.01 -193.58,0.01 -290.37,0c-10.9,-0.01 -17.3,-6.09 -17.31,-16.87c-0.07,-64.14 -0.07,-128.28 0.01,-192.42c0.01,-10.63 6.29,-16.68 16.87,-16.7c23.33,-0.04 46.65,-0.13 69.97,0.08c5.14,0.04 7.93,-1.79 9.66,-6.61c4.29,-11.89 9.05,-23.61 13.41,-35.47c1.03,-2.81 2.44,-3.76 5.43,-3.75c31.32,0.11 62.64,0.11 93.96,0c3.15,-0.02 4.71,0.92 5.82,3.93c4.34,11.87 9.07,23.6 13.4,35.48c1.66,4.57 4.32,6.45 9.27,6.41c23.33,-0.19 46.65,-0.19 69.97,0.04c3.49,0.03 6.96,1.66 10.74,2.78m-244.46,97.03c-1.04,47.14 33.46,86.43 79.89,91.01c50.15,4.94 94.13,-33.14 96.89,-83.9c3.02,-55.71 -47.28,-100.87 -102.28,-91.72c-44.02,7.32 -73.17,44.23 -74.5,84.61z" fill="#FEFEFF" id="svg_6" opacity="1"/>
  <path d="m168.59,256.41c1.31,-39.94 30.46,-76.85 74.48,-84.17c55,-9.15 105.3,36.01 102.28,91.72c-2.76,50.76 -46.74,88.84 -96.89,83.9c-46.43,-4.58 -80.93,-43.87 -79.87,-91.45m65.4,65.28c10.38,3.6 20.93,4.85 31.94,3.49c35.11,-4.34 61.84,-38.8 56.71,-73.49c-5.58,-37.75 -39.5,-63.47 -75.69,-57.37c-30.09,5.06 -52.34,28.43 -55.75,58.53c-3.31,29.25 13.88,57.24 42.79,68.84z" fill="#303548" id="svg_7" opacity="1"/>
  <path d="m233.63,321.52c-28.55,-11.43 -45.74,-39.42 -42.43,-68.67c3.41,-30.1 25.66,-53.47 55.75,-58.53c36.19,-6.1 70.11,19.62 75.69,57.37c5.13,34.69 -21.6,69.15 -56.71,73.49c-11.01,1.36 -21.56,0.11 -32.3,-3.66z" fill="#FEFFFF" id="svg_8" opacity="1"/>
 </g>
</svg>