<?xml version="1.0"?>
<svg width="1071" height="1024" xmlns="http://www.w3.org/2000/svg" xmlns:svg="http://www.w3.org/2000/svg" class="svg-icon" version="1.1">
 <g class="layer">
  <title>Layer 1</title>
  <path d="m410.43,423.9c0,23.33 -18.68,43.35 -48.57,43.35c-26.15,0 -48.57,-20.01 -48.57,-43.35s22.42,-43.35 48.57,-43.35c29.89,0 48.57,20 48.57,43.35zm556.67,-23.34c0,-180.05 -186.81,-326.76 -418.44,-326.76c-235.37,0 -422.17,146.71 -422.17,326.76c0,106.7 67.25,206.73 179.33,266.75l0,103.36c0,10 7.47,16.67 14.95,20.01l7.47,0c7.46,0 11.21,0 14.94,-3.34l52.3,-30l3.74,-3.34l59.78,-33.34c29.89,3.34 59.78,6.67 89.66,6.67c231.63,0 418.43,-146.7 418.43,-326.76l0.01,0zm-615.45,300.88c-4.42,-40.54 526.45,146.14 581.36,-258.22c54.91,-404.36 -593.57,-329.4 -384.35,-329.4c205.48,0 373.6,130.03 373.6,286.74c0,156.71 -168.12,286.75 -373.6,286.75c-29.89,0 -59.78,-3.33 -89.66,-6.67c-7.47,-3.33 -14.95,0 -18.68,0l-135.05,-151.78l90.13,173.37l-139.32,-224.63c0,-6.66 100,264.39 95.57,223.85zm253.05,-287.54c0,23.34 -22.42,43.35 -48.57,43.35s-48.57,-20 -48.57,-43.35c0,-26.67 22.41,-43.35 48.57,-43.35c26.15,0 48.57,16.67 48.57,43.35zm186.8,0c0,23.34 -18.68,43.35 -48.57,43.35c-26.16,0 -48.57,-20 -48.57,-43.35c0,-26.67 22.41,-43.35 48.57,-43.35c29.89,0 48.57,16.67 48.57,43.35z" fill="#ffffff" id="svg_1" transform="matrix(1 0 0 1 0 0)"/>
 </g>
</svg>