<?xml version="1.0"?>
<svg width="24" height="24" xmlns="http://www.w3.org/2000/svg" xmlns:svg="http://www.w3.org/2000/svg">
 <g class="layer">
  <title>Layer 1</title>
  <g fill="#292d32" id="svg_1">
   <path d="m16.8,2l-2.6,0c-3.2,0 -5.2,2 -5.2,5.2l0,4.05l6.25,0c0.41,0 0.75,0.34 0.75,0.75s-0.34,0.75 -0.75,0.75l-6.25,0l0,4.05c0,3.2 2,5.2 5.2,5.2l2.59,0c3.2,0 5.2,-2 5.2,-5.2l0,-9.6c0.01,-3.2 -1.99,-5.2 -5.19,-5.2z" fill="#ffffff" id="svg_2"/>
   <path d="m4.56,11.25l2.07,-2.07c0.15,-0.15 0.22,-0.34 0.22,-0.53s-0.07,-0.39 -0.22,-0.53c-0.29,-0.29 -0.77,-0.29 -1.06,0l-3.35,3.35c-0.29,0.29 -0.29,0.77 0,1.06l3.35,3.35c0.29,0.29 0.77,0.29 1.06,0s0.29,-0.77 0,-1.06l-2.07,-2.07l4.44,0l0,-1.5l-4.44,0z" fill="#ffffff" id="svg_3"/>
  </g>
 </g>
</svg>