<?xml version="1.0"?>
<svg width="350" height="350" xmlns="http://www.w3.org/2000/svg" xmlns:svg="http://www.w3.org/2000/svg" preserveAspectRatio="xMidYMid meet" version="1.0">
 <g class="layer">
  <title>Layer 1</title>
  <g fill="#000000" id="svg_1" transform="matrix(0.1 0 0 -0.1 0 0)">
   <path d="m1654,-50c-228,-49 -408,-222 -464,-446c-20,-72 -20,-112 -20,-644c0,-532 0,-572 20,-644c26,-104 72,-187 146,-266c68,-73 142,-120 242,-158c58,-23 82,-26 192,-26c110,0 132,3 192,26c150,57 270,161 340,294c66,125 68,147 68,774c0,627 -2,649 -68,774c-70,134 -192,239 -340,293c-74,28 -234,40 -308,23z" fill="#ffffff" id="svg_2"/>
   <path d="m870,-1254c-46,-26 -50,-47 -50,-261c0,-338 46,-501 198,-704c134,-179 384,-329 602,-360l44,-6l4,-228l2,-227l-304,0l-304,0l-32,-26c-26,-22 -30,-32 -30,-74c0,-42 4,-52 30,-74l32,-26l708,0l710,0l30,28c26,24 32,36 32,72c0,36 -6,48 -32,72l-30,28l-306,0l-304,0l2,228l2,227l30,3c90,9 276,77 360,130c240,154 394,381 440,649c20,108 22,469 4,508c-14,29 -56,55 -88,55c-34,0 -76,-27 -88,-57c-6,-16 -14,-126 -16,-253c-4,-244 -12,-288 -66,-404c-90,-188 -258,-335 -460,-402c-76,-25 -100,-28 -220,-28c-122,0 -144,3 -220,28c-208,69 -380,222 -464,411c-52,118 -60,165 -64,400c-2,125 -8,232 -14,248c-20,49 -88,71 -138,43z" fill="#ffffff" id="svg_3"/>
  </g>
 </g>
</svg>