<?xml version="1.0"?>
<svg width="502.06" height="500.55" xmlns="http://www.w3.org/2000/svg" xmlns:svg="http://www.w3.org/2000/svg" preserveAspectRatio="xMidYMid meet" version="1.0">
 <g class="layer">
  <title>Layer 1</title>
  <rect fill="#ffffff" height="331" id="svg_5" transform="matrix(1 0 0 1 0 0)" width="258" x="115" y="89"/>
  <g fill="#000000" id="svg_1" transform="matrix(0.1 0 0 -0.1 0 0)">
   <path d="m2231,-10c-439,-53 -846,-214 -1200,-472c-117,-86 -147,-112 -283,-246c-648,-634 -896,-1579 -647,-2460c122,-430 338,-791 666,-1111c409,-400 927,-642 1492,-701c169,-17 515,-7 671,21c357,63 682,191 970,384c177,118 265,191 421,352c297,305 504,666 615,1069c275,1004 -90,2063 -923,2683c-323,240 -672,388 -1089,463c-95,17 -168,22 -368,25c-137,1 -284,-2 -325,-7zm389,-1070c112,-25 227,-110 285,-209c67,-113 66,-108 66,-687c0,-502 -1,-526 -21,-585c-43,-129 -121,-216 -248,-277c-73,-35 -80,-36 -186,-36c-106,0 -113,1 -185,36c-130,63 -206,148 -250,278c-20,61 -21,77 -18,605l3,543l43,85c30,62 57,99 94,133c56,50 145,100 206,114c51,12 158,13 211,0zm-942,-1219c43,-26 49,-41 57,-136c28,-349 255,-627 585,-716c110,-30 288,-29 395,1c131,36 235,95 334,186c146,135 221,292 247,513c14,121 23,141 76,162c60,25 138,-17 155,-86c9,-35 -13,-206 -37,-294c-90,-322 -341,-582 -661,-684c-62,-19 -132,-38 -155,-41l-43,-7l0,-154l0,-154l118,0c100,0 122,-3 150,-20c70,-43 75,-131 11,-185l-31,-25l-362,0c-358,0 -364,0 -391,22c-42,33 -58,79 -42,124c22,66 51,79 193,82l124,4l0,153l0,154l-47,7c-87,12 -269,79 -354,130c-160,95 -333,288 -405,450c-54,122 -84,248 -87,371c-2,92 10,124 57,147c42,21 75,20 113,-4z" fill="#6482f0" id="svg_3"/>
  </g>
 </g>
</svg>