<?xml version="1.0"?>
<svg width="510.61" height="509.39" xmlns="http://www.w3.org/2000/svg" xmlns:svg="http://www.w3.org/2000/svg" preserveAspectRatio="xMidYMid meet" version="1.0">
 <g class="layer">
  <title>Layer 1</title>
  <rect fill="#ffffff" height="336" id="svg_3" transform="matrix(1 0 0 1 0 0)" width="357" x="78.31" y="96.61"/>
  <g fill="#000000" filter="url(#svg_1_blur)" id="svg_1" transform="matrix(0.1 0 0 -0.1 0 0)">
   <path d="m2210,-73c-296,-38 -621,-143 -875,-281c-103,-56 -291,-181 -386,-257c-105,-84 -296,-278 -388,-394c-612,-769 -715,-1835 -261,-2711c328,-632 920,-1103 1606,-1276c202,-52 321,-67 558,-72c248,-6 398,7 605,52c628,136 1200,529 1559,1073c358,544 489,1210 365,1860c-70,363 -230,721 -461,1029c-87,117 -301,340 -413,430c-377,305 -845,501 -1317,552c-133,15 -460,12 -592,-5zm423,-1065c107,-24 224,-108 280,-199c57,-92 71,-154 71,-307l0,-138l-439,-439l-439,-439l-16,53c-14,46 -16,128 -16,575c0,578 0,577 66,686c59,97 174,183 282,208c51,12 158,13 211,0zm1091,-184c54,-28 75,-98 46,-153c-8,-15 -188,-200 -400,-412l-386,-385l0,-143c0,-117 -4,-153 -21,-204c-43,-128 -120,-215 -246,-275c-92,-44 -202,-55 -303,-29l-64,17l-110,-110l-109,-109l61,-31c107,-54 201,-75 337,-75c92,1 138,6 198,22c246,69 436,239 530,473c28,70 57,214 57,284c0,104 128,153 194,75c34,-41 38,-71 26,-176c-38,-336 -209,-602 -499,-774c-80,-48 -227,-102 -323,-120l-68,-12l0,-153l0,-153l124,-4c108,-3 128,-6 153,-24c59,-44 60,-125 3,-177l-30,-27l-365,0l-364,0l-34,30c-41,36 -52,78 -32,125c25,61 63,75 198,75l117,0l0,154l0,154l-66,11c-89,16 -243,72 -316,116c-33,19 -63,35 -66,35c-4,0 -117,-111 -252,-246c-135,-135 -257,-252 -272,-260c-74,-39 -168,13 -168,94c0,18 6,45 14,60c17,30 2300,2314 2331,2331c28,15 71,13 105,-4zm-2032,-1035c40,-25 48,-44 56,-145c10,-109 38,-210 87,-307l41,-81l-78,-78c-43,-44 -81,-79 -84,-79c-3,0 -27,35 -52,78c-78,129 -120,252 -138,409c-15,121 -9,153 36,192c41,37 84,40 132,11z" fill="#303548" id="svg_2" transform="rotate(1 2528.88 -2561.84)"/>
  </g>
 </g>
 <defs>
  <filter height="200%" id="svg_1_blur" width="200%" x="-50%" y="-50%">
   <feGaussianBlur in="SourceGraphic" stdDeviation="7"/>
  </filter>
 </defs>
</svg>