<?xml version="1.0"?>
<svg width="491" height="480" xmlns="http://www.w3.org/2000/svg" xmlns:svg="http://www.w3.org/2000/svg" preserveAspectRatio="xMidYMid meet" version="1.0">
 <g class="layer">
  <title>Layer 1</title>
  <g fill="#000000" id="svg_1" transform="matrix(0.1 0 0 -0.1 0 0)">
   <path d="m2375,-336c-11,-2 -45,-9 -75,-15c-30,-6 -95,-30 -145,-54c-193,-93 -334,-278 -375,-490c-8,-43 -10,-281 -8,-820l3,-760l23,-69l24,-69l655,654l654,654l-3,210c-4,200 -6,214 -33,294c-73,214 -259,389 -475,446c-57,16 -210,27 -245,19z" fill="#ffffff" id="svg_2"/>
   <path d="m4090,-612c-28,-7 -382,-356 -1753,-1726c-1175,-1174 -1724,-1730 -1737,-1758c-26,-52 -25,-89 3,-144c39,-78 115,-112 198,-90c39,10 86,53 424,391c209,208 383,379 387,379c3,0 37,-19 74,-42c142,-86 326,-154 499,-185l95,-17l0,-232l0,-233l-189,-3c-174,-3 -192,-5 -218,-24c-50,-37 -73,-81 -73,-142c0,-66 24,-111 78,-144l37,-23l535,0l535,0l37,23c104,65 107,210 5,286c-26,19 -44,21 -218,24l-189,3l0,233l0,232l95,17c618,110 1104,596 1216,1215c24,132 27,298 6,338c-32,61 -85,94 -152,94c-50,0 -77,-10 -113,-44c-43,-38 -54,-75 -63,-201c-36,-515 -388,-930 -897,-1057c-126,-32 -397,-32 -525,0c-94,23 -227,75 -291,113l-38,22l164,164l165,165l74,-24c106,-33 273,-33 379,0c98,31 155,61 227,119c124,100 203,222 243,378c17,65 20,111 20,274l0,196l584,585c502,502 586,591 596,627c24,80 -13,162 -90,201c-47,24 -75,26 -130,10z" fill="#ffffff" id="svg_3"/>
   <path d="m1029,-2163c-65,-44 -79,-78 -79,-191c0,-169 41,-366 111,-530c36,-86 121,-240 154,-281l25,-30l120,120l121,121l-45,79c-85,151 -133,311 -142,475c-6,116 -17,162 -46,200c-48,61 -156,80 -219,37z" fill="#ffffff" id="svg_4"/>
  </g>
 </g>
</svg>