<?xml version="1.0"?>
<svg width="512" height="512" xmlns="http://www.w3.org/2000/svg" xmlns:svg="http://www.w3.org/2000/svg" enable-background="new 0 0 512 512" version="1.1" xml:space="preserve">
 <g class="layer">
  <title>Layer 1</title>
  <g id="svg_1">
   <path d="m97.34,482.17c-23.31,0 -45.21,-9.08 -61.69,-25.55c-34.01,-34.02 -34.01,-89.37 0,-123.38l269.69,-269.7c21.73,-21.75 50.65,-33.71 81.39,-33.71c30.75,0 59.67,11.96 81.4,33.71c21.75,21.75 33.72,50.65 33.72,81.39c0,30.75 -11.96,59.65 -33.7,81.38l-212.31,212.29c-6.37,6.37 -16.69,6.37 -23.06,0c-6.38,-6.38 -6.38,-16.7 0,-23.07l212.29,-212.29c15.59,-15.58 24.16,-36.29 24.16,-58.31c0,-22.01 -8.59,-42.74 -24.17,-58.32c-15.58,-15.58 -36.29,-24.15 -58.33,-24.15c-22.03,0 -42.74,8.57 -58.32,24.15l-269.68,269.7c-21.29,21.3 -21.29,55.94 0,77.23c20.64,20.62 56.58,20.62 77.23,0l181.09,-181.1c4.92,-4.92 7.74,-11.74 7.74,-18.69c0,-7.04 -2.75,-13.68 -7.75,-18.69c-10.3,-10.29 -27.07,-10.32 -37.36,0l-123.68,123.69c-6.37,6.38 -16.7,6.38 -23.07,0c-6.37,-6.37 -6.37,-16.69 0,-23.06l123.68,-123.69c23,-23.01 60.46,-23.01 83.49,0c11.17,11.16 17.32,26 17.32,41.75c0,15.55 -6.31,30.77 -17.3,41.76l-181.09,181.11c-16.47,16.47 -38.38,25.55 -61.69,25.55z" fill="#ffffff" id="svg_2"/>
  </g>
 </g>
</svg>