<?xml version="1.0"?>
<svg width="391.377" height="391.377" xmlns="http://www.w3.org/2000/svg" xmlns:svg="http://www.w3.org/2000/svg" version="1.1" xml:space="preserve">
 <g class="layer">
  <title>Layer 1</title>
  <g id="svg_1">
   <path d="m387.46,91.78c-3.74,-6.18 -9.65,-10.53 -16.64,-12.25l-208.32,-51.23c-2.11,-0.52 -4.27,-0.78 -6.43,-0.78c-12.48,0 -23.26,8.45 -26.24,20.55l-6.27,25.5l-104.15,33.05c-13.92,4.41 -22.09,18.98 -18.61,33.16l50.1,203.7c1.74,7.04 6.13,12.95 12.36,16.64c4.18,2.48 8.84,3.74 13.57,3.74c2.32,0 4.66,-0.31 6.97,-0.92l160.44,-42.91l63.58,15.64c2.1,0.52 4.27,0.78 6.43,0.78c12.47,0 23.26,-8.45 26.24,-20.55l50.1,-203.7c1.72,-6.99 0.6,-14.24 -3.13,-20.42zm-308.21,241.32l-48.83,-198.51l84.74,-26.89l-35.43,144.06c-1.72,6.99 -0.61,14.25 3.13,20.43c3.74,6.17 9.65,10.52 16.64,12.24l84.25,20.72l-104.5,27.95zm256.46,-123.37l-28.5,-43.88c-3.49,-5.38 -9.29,-8.59 -15.52,-8.59c-4.23,0 -8.27,1.44 -11.69,4.16l-60.66,48.25c-1.82,1.45 -4.04,2.22 -6.43,2.22c-3.14,0 -6.06,-1.34 -8.01,-3.67l-22.98,-27.34c-4.41,-5.25 -11.47,-8.38 -18.88,-8.38c-3.66,0 -7.21,0.81 -10.26,2.32l-26.47,13.2l31.94,-129.88l202.49,49.81l-25.03,101.78z" fill="#ffffff" id="svg_2"/>
   <path d="m207.99,145.84c2.11,0.52 4.28,0.79 6.44,0.79c12.41,0 23.14,-8.43 26.11,-20.49c3.54,-14.4 -5.3,-29.01 -19.7,-32.55c-2.11,-0.52 -4.28,-0.78 -6.44,-0.78c-12.41,0 -23.15,8.42 -26.11,20.48c-3.54,14.4 5.29,29.01 19.7,32.55z" fill="#ffffff" id="svg_3"/>
  </g>
 </g>
</svg>