<?xml version="1.0"?>
<svg width="24" height="24" xmlns="http://www.w3.org/2000/svg" xmlns:svg="http://www.w3.org/2000/svg">
 <g class="layer">
  <title>Layer 1</title>
  <path clip-rule="evenodd" d="m12.75,5c0,-0.41 -0.34,-0.75 -0.75,-0.75s-0.75,0.34 -0.75,0.75l0,6.25l-6.25,0c-0.41,0 -0.75,0.34 -0.75,0.75s0.34,0.75 0.75,0.75l6.25,0l0,6.25c0,0.41 0.34,0.75 0.75,0.75s0.75,-0.34 0.75,-0.75l0,-6.25l6.25,0c0.41,0 0.75,-0.34 0.75,-0.75s-0.34,-0.75 -0.75,-0.75l-6.25,0l0,-6.25z" fill="#ffffff" fill-rule="evenodd" id="svg_1"/>
 </g>
</svg>