<?xml version="1.0"?>
<svg width="45.53199999999999" height="45.53199999999999" xmlns="http://www.w3.org/2000/svg" xmlns:svg="http://www.w3.org/2000/svg" version="1.1" xml:space="preserve">
 <g class="layer">
  <title>Layer 1</title>
  <g id="svg_1">
   <path d="m22.77,0c-12.58,0 -22.77,10.19 -22.77,22.77s10.19,22.76 22.77,22.76c12.57,0 22.76,-10.19 22.76,-22.76s-10.19,-22.77 -22.76,-22.77zm0,6.81c4.16,0 7.53,3.37 7.53,7.53c0,4.16 -3.37,7.53 -7.53,7.53c-4.16,0 -7.53,-3.37 -7.53,-7.53c0,-4.16 3.37,-7.53 7.53,-7.53zm-0.01,32.77c-4.15,0 -7.95,-1.51 -10.88,-4.01c-0.71,-0.61 -1.13,-1.51 -1.13,-2.44c0,-4.22 3.42,-7.59 7.64,-7.59l8.76,0c4.22,0 7.62,3.37 7.62,7.59c0,0.94 -0.41,1.83 -1.13,2.44c-2.93,2.5 -6.73,4.01 -10.88,4.01z" fill="#ffffff" id="svg_2"/>
  </g>
 </g>
</svg>