<?xml version="1.0"?>
<svg width="24" height="24" xmlns="http://www.w3.org/2000/svg" xmlns:svg="http://www.w3.org/2000/svg">

 <g class="layer">
  <title>Layer 1</title>
  <path clip-rule="evenodd" d="m22.71,7.71c0.39,-0.39 0.39,-1.03 0,-1.42c-0.39,-0.39 -1.03,-0.39 -1.42,0l-9.29,9.3l-0.79,-0.8c-0.39,-0.39 -1.03,-0.39 -1.42,0c-0.39,0.39 -0.39,1.03 0,1.42l1.5,1.5c0.39,0.39 1.03,0.39 1.42,0l10,-10zm-6,0c0.39,-0.39 0.39,-1.03 0,-1.42c-0.39,-0.39 -1.03,-0.39 -1.42,0l-9.29,9.3l-3.29,-3.3c-0.39,-0.39 -1.03,-0.39 -1.42,0c-0.39,0.39 -0.39,1.03 0,1.42l4,4c0.19,0.18 0.44,0.29 0.71,0.29c0.27,0 0.52,-0.11 0.71,-0.29l10,-10z" fill="#6482f0" fill-rule="evenodd" id="svg_1"/>
 </g>
</svg>