<?xml version="1.0"?>
<svg width="460.003" height="460.003" xmlns="http://www.w3.org/2000/svg" xmlns:svg="http://www.w3.org/2000/svg" version="1.1" xml:space="preserve">
 <g class="layer">
  <title>Layer 1</title>
  <g id="svg_1">
   <g id="svg_2">
    <path d="m455.61,4.39c-4.19,-4.19 -10.46,-5.52 -15.99,-3.39l-430,165.38c-5.63,2.16 -9.41,7.48 -9.61,13.5c-0.2,6.02 3.22,11.58 8.69,14.11l175.93,81.38l81.38,175.93c2.46,5.32 7.78,8.7 13.61,8.7c0.17,0 0.34,0 0.5,0c6.03,-0.2 11.34,-3.99 13.51,-9.61l165.37,-430.01c2.13,-5.53 0.8,-11.79 -3.39,-15.99zm-177.26,402.13l-68.8,-148.75c-0.75,-1.61 -1.77,-3.07 -3.01,-4.31l212.35,-212.34l-140.54,365.4z" fill="#ffffff" id="svg_3"/>
   </g>
  </g>
 </g>
</svg>