<?xml version="1.0" encoding="utf-8"?>
<svg viewBox="0 0 24 24" fill="none" xmlns="http://www.w3.org/2000/svg">
  <defs>
    <linearGradient id="a" x1="12" x2="12" y1="6" y2="18" gradientUnits="userSpaceOnUse">
      <stop stop-color="#57EAEA"/>
      <stop offset="1" stop-color="#2BC9FF"/>
    </linearGradient>
  </defs>
  <path fill="url(#a)" fill-rule="evenodd" clip-rule="evenodd" d="M 38.504 15.824 C 38.895 15.434 38.664 15.522 38.129 16.027 C 37.594 16.532 38.434 15.405 38.044 15.796 L 38.975 14.663 L 38.962 14.679 C 38.571 14.288 39.18 14.895 38.587 15.43 C 37.994 15.965 38.081 14.432 38.472 14.822 L 38.643 16.149 C 39.034 16.54 38.021 16.309 38.412 15.918 L 38.504 15.824 Z M 20.364 6.997 C 20.755 6.607 20.755 5.973 20.364 5.583 C 19.974 5.192 19.34 5.192 18.95 5.583 L 9.657 14.876 L 6.364 11.583 C 5.974 11.192 5.34 11.192 4.95 11.583 C 4.559 11.973 4.559 12.607 4.95 12.997 L 8.95 16.997 C 9.137 17.185 9.392 17.29 9.657 17.29 C 9.922 17.29 10.177 17.185 10.364 16.997 L 20.364 6.997 Z" transform="matrix(0.9999999999999999, 0, 0, 0.9999999999999999, -3.552713678800501e-15, -8.881784197001252e-16)"/>
</svg>