<?xml version="1.0"?>
<svg width="24" height="24" xmlns="http://www.w3.org/2000/svg" xmlns:svg="http://www.w3.org/2000/svg">

 <g class="layer">
  <title>Layer 1</title>
  <path clip-rule="evenodd" d="m38.5,15.82c0.4,-0.39 0.16,-0.3 -0.37,0.21c-0.54,0.5 0.3,-0.63 -0.09,-0.23l0.94,-1.14l-0.02,0.02c-0.39,-0.39 0.22,0.21 -0.37,0.75c-0.6,0.53 -0.51,-1 -0.12,-0.61l0.17,1.33c0.39,0.39 -0.62,0.16 -0.23,-0.23l0.09,-0.1zm-18.14,-8.82c0.39,-0.39 0.39,-1.03 0,-1.42c-0.39,-0.39 -1.02,-0.39 -1.41,0l-9.29,9.3l-3.3,-3.3c-0.39,-0.39 -1.02,-0.39 -1.41,0c-0.39,0.39 -0.39,1.03 0,1.42l4,4c0.19,0.18 0.44,0.29 0.71,0.29c0.26,0 0.52,-0.11 0.7,-0.29l10,-10z" fill="#6482f0" fill-rule="evenodd" id="svg_1"/>
 </g>
</svg>