<?xml version="1.0"?>
<svg width="50" height="50" xmlns="http://www.w3.org/2000/svg" xmlns:svg="http://www.w3.org/2000/svg">
 <g class="layer">
  <title>Layer 1</title>
  <path d="m46.93,21.22l-5.91,-0.97c-0.35,-1.18 -0.82,-2.32 -1.41,-3.4l3.45,-4.92c0.28,-0.39 0.23,-0.94 -0.11,-1.28l-3.89,-3.89c-0.35,-0.34 -0.9,-0.39 -1.29,-0.1l-4.85,3.48c-1.09,-0.6 -2.24,-1.08 -3.43,-1.43l-1.03,-5.88c-0.08,-0.48 -0.5,-0.83 -0.98,-0.83l-5.5,0c-0.49,0 -0.91,0.35 -0.99,0.84l-0.96,5.85c-1.2,0.35 -2.35,0.82 -3.43,1.42l-4.83,-3.45c-0.4,-0.29 -0.95,-0.24 -1.29,0.1l-3.89,3.89c-0.34,0.34 -0.39,0.88 -0.11,1.28l3.4,4.86c-0.61,1.1 -1.09,2.26 -1.44,3.46l-5.83,0.97c-0.48,0.08 -0.84,0.5 -0.84,0.99l0,5.5c0,0.48 0.35,0.9 0.83,0.98l5.83,1.04c0.35,1.2 0.83,2.36 1.44,3.46l-3.45,4.81c-0.28,0.4 -0.23,0.94 0.11,1.29l3.89,3.89c0.34,0.34 0.88,0.39 1.28,0.11l4.87,-3.41c1.09,0.6 2.25,1.08 3.44,1.42l0.98,5.87c0.08,0.48 0.5,0.83 0.99,0.83l5.5,0c0.48,0 0.9,-0.35 0.98,-0.83l1.04,-5.89c1.2,-0.35 2.35,-0.83 3.43,-1.43l4.91,3.44c0.4,0.28 0.94,0.23 1.28,-0.11l3.89,-3.89c0.35,-0.35 0.39,-0.89 0.1,-1.29l-3.49,-4.86c0.59,-1.08 1.06,-2.22 1.4,-3.41l5.92,-1.04c0.48,-0.08 0.83,-0.5 0.83,-0.98l0,-5.5c0,-0.49 -0.36,-0.91 -0.84,-0.99zm-22.16,10.78c-3.87,0 -7,-3.13 -7,-7c0,-3.87 3.13,-7 7,-7s7,3.13 7,7c0,3.87 -3.13,7 -7,7z" fill="#ffffff" id="svg_1"/>
 </g>
</svg>