<?xml version="1.0"?>
<svg width="24" height="30" xmlns="http://www.w3.org/2000/svg" xmlns:svg="http://www.w3.org/2000/svg">
 <title>Iconsset_solid</title>
 <g class="layer">
  <title>Layer 1</title>
  <path d="m12,3a9,9 0 1 0 9,9a9,9 0 0 0 -9,-9zm-4,7a1,1 0 1 1 1,1a1,1 0 0 1 -1,-1zm7.35,5.35a4.87,4.87 0 0 1 -3.35,1.15a4.87,4.87 0 0 1 -3.35,-1.15a0.5,0.5 0 0 1 0.7,-0.71a3.9,3.9 0 0 0 2.65,0.86a3.9,3.9 0 0 0 2.65,-0.86a0.5,0.5 0 0 1 0.7,0.71zm-0.35,-4.35a1,1 0 1 1 1,-1a1,1 0 0 1 -1,1z" fill="#ffffff" id="svg_1"/>
 </g>
</svg>