<?xml version="1.0"?>
<svg width="512" height="512" xmlns="http://www.w3.org/2000/svg" xmlns:svg="http://www.w3.org/2000/svg" enable-background="new 0 0 512 512" version="1.1" xml:space="preserve">
 <g class="layer">
  <title>Layer 1</title>
  <g id="svg_4">
   <path d="m112.07,319.82c21.25,-14.11 44.84,-21.85 67.67,-29.38c3.27,-1.08 6.55,-2.14 9.81,-3.24l0.67,-0.22c4.82,-1.69 9.39,-3.29 13.13,-5.35c0.17,-0.39 0.41,-1.05 0.7,-2.13c-18.79,-27.43 -31.55,-69.82 -31.55,-106.14c0,-30.81 9.68,-53.63 27.94,-67.52c-7.9,-4 -17.42,-5.53 -27.67,-5.53c-27.3,0 -49.44,10.91 -49.44,50.08c0,26.01 9.76,57.91 24.3,76.43c-0.14,1.46 -0.31,2.93 -0.57,4.39c-0.87,3.98 -2.26,8.44 -5.98,10.64c-4.18,2.48 -8.81,4.06 -13.38,5.65c-18.91,6.37 -38.47,11.98 -55.25,23.12c-8.73,5.75 -14.64,15.72 -17.9,25.51c-3.36,10.16 -4.74,24.37 -4.53,32.37l51.58,0c3.27,-4 6.75,-6.24 10.47,-8.68z" fill="#ffffff" id="svg_5"/>
   <path d="m457.46,296.13c-3.27,-9.79 -9.18,-19.38 -17.9,-25.13c-16.79,-11.14 -36.35,-16.94 -55.26,-23.3c-4.57,-1.6 -9.2,-3.27 -13.37,-5.75c-3.73,-2.21 -5.12,-6.71 -5.98,-10.7c-0.39,-2.1 -0.62,-4.25 -0.74,-6.37c13.71,-18.77 22.81,-49.37 22.81,-74.48c0,-39.18 -22.14,-50.09 -49.44,-50.09c-10.39,0 -20.01,1.59 -27.97,5.7c18.11,13.92 27.7,36.69 27.7,67.37c0,35.36 -11.86,76.07 -29.9,103.67c0.05,0.32 0.1,0.62 0.16,0.93c0.47,2.14 0.86,3.26 1.1,3.81c3.96,2.21 8.69,3.94 13.97,5.8l7.92,2.63c23.42,7.78 47.62,15.73 69.43,30.19c3.53,2.33 6.85,4.09 9.97,8.09l52.02,0c0.21,-8 -1.17,-22.21 -4.52,-32.37z" fill="#ffffff" id="svg_6"/>
  </g>
  <path d="m414.74,368.01c-4.35,-13.06 -12.23,-26 -23.86,-33.67c-22.39,-14.86 -48.47,-22.68 -73.69,-31.16c-6.08,-2.13 -12.26,-4.39 -17.82,-7.7c-4.97,-2.95 -6.82,-8.97 -7.98,-14.28c-0.5,-2.81 -0.82,-5.68 -0.98,-8.52c18.28,-25.01 30.42,-65.83 30.42,-99.3c0,-52.24 -29.52,-66.79 -65.93,-66.79c-36.41,0 -65.92,14.54 -65.92,66.77c0,34.67 13,77.21 32.39,101.91c-0.18,1.95 -0.41,3.91 -0.76,5.85c-1.16,5.3 -3.02,11.25 -7.97,14.19c-5.57,3.31 -11.75,5.4 -17.83,7.53c-25.22,8.49 -51.3,15.97 -73.68,30.83c-11.64,7.66 -19.52,21.28 -23.87,34.34c-4.48,13.55 -6.31,30.49 -6.03,43.49l164.77,0l164.77,0c0.28,-13 -1.55,-29.94 -6.03,-43.49z" fill="#fcfcfc" id="svg_7" transform="matrix(1 0 0 1 0 0)"/>
 </g>
</svg>